<?xml version="1.0" standalone="no"?>
<!DOCTYPE svg PUBLIC "-//W3C//DTD SVG 20010904//EN"
 "http://www.w3.org/TR/2001/REC-SVG-20010904/DTD/svg10.dtd">
<svg version="1.0" xmlns="http://www.w3.org/2000/svg"
 width="256.000000pt" height="256.000000pt" viewBox="0 0 256.000000 256.000000"
 preserveAspectRatio="xMidYMid meet">
<metadata>
Created by potrace 1.11, written by Peter Selinger 2001-2013
</metadata>
<g transform="translate(0.000000,256.000000) scale(0.100000,-0.100000)"
fill="#000000" stroke="none">
<path d="M798 2379 c-45 -29 -48 -34 -48 -74 l0 -43 -131 39 c-73 22 -135 39
-139 39 -14 0 -32 -389 -40 -885 -5 -286 -11 -529 -14 -540 -3 -11 -7 -52 -10
-92 l-5 -72 147 -84 c81 -46 185 -106 232 -132 47 -26 126 -70 175 -98 50 -28
140 -82 200 -121 126 -79 310 -178 374 -201 l44 -15 121 59 c221 109 620 331
651 361 24 24 28 33 19 48 -18 28 -69 58 -159 94 -47 18 -88 40 -91 48 -4 8
-10 238 -15 510 -4 272 -10 585 -14 696 l-8 201 -386 90 c-212 49 -387 87
-389 83 -1 -3 17 -51 42 -106 24 -54 43 -100 41 -102 -6 -6 -166 40 -163 47 2
3 12 23 22 43 17 32 17 41 6 68 -14 33 -64 67 -75 50 -8 -13 4 -32 15 -25 5 3
12 0 15 -6 7 -11 -31 -59 -47 -59 -5 0 -16 -7 -24 -15 -14 -13 -13 -15 4 -15
11 0 25 -7 32 -15 7 -8 9 -15 4 -15 -31 0 -301 85 -311 98 -7 9 -13 34 -14 56
0 23 -3 58 -7 78 l-7 38 -47 -31z m448 -186 c-11 -11 -17 4 -9 23 7 18 8 18
11 1 2 -10 1 -21 -2 -24z m316 -12 l20 -20 -26 -24 c-28 -26 -66 -41 -66 -27
0 5 5 12 10 15 6 3 10 16 10 29 0 19 16 46 27 46 2 0 13 -9 25 -19z m-682 -70
c-12 -24 -30 -28 -30 -7 0 19 33 52 38 38 2 -6 -2 -20 -8 -31z m740 10 c0 -11
-4 -23 -10 -26 -6 -4 -10 5 -10 19 0 14 5 26 10 26 6 0 10 -9 10 -19z m-697
-7 c3 -4 -2 -17 -11 -29 -15 -19 -18 -39 -15 -128 6 -218 37 -380 83 -435 14
-17 28 -23 52 -20 61 6 102 94 173 367 21 79 25 105 15 111 -16 10 -5 46 16
54 13 5 15 1 10 -19 -6 -24 -5 -25 13 -15 24 12 42 -8 19 -21 -18 -10 -36 -59
-73 -199 -50 -188 -114 -300 -171 -300 -67 0 -102 50 -128 185 -21 112 -25
143 -32 288 -6 114 -5 129 11 147 19 21 28 24 38 14z m37 -43 c0 -10 -7 -24
-15 -31 -12 -10 -15 -10 -15 3 0 23 11 47 21 47 5 0 9 -8 9 -19z m360 -110 c0
-10 -7 -24 -15 -31 -12 -10 -15 -10 -15 3 0 23 11 47 21 47 5 0 9 -8 9 -19z"/>
</g>
</svg>
